<?xml version="1.0"?>
<svg version="1.1" xmlns="http://www.w3.org/2000/svg" xmlns:xlink="http://www.w3.org/1999/xlink" width="612" height="792">
    <desc iVinci="yes" version="4.6" gridStep="20" showGrid="yes" snapToGrid="no" codePlatform="0" markedExportShape="1"/>
    <g id="Layer1" name="Layer 1" opacity="1">
        <g id="Shape1">
            <desc shapeID="1" type="0" basicInfo-basicType="0" basicInfo-roundedRectRadius="12" basicInfo-polygonSides="6" basicInfo-starPoints="5" bounding="rect(-59.4269,-64.4585,118.854,128.917)" text="" font-familyName="" font-pixelSize="20" font-bold="0" font-underline="0" font-alignment="1" strokeStyle="0" markerStart="0" markerEnd="0" shadowEnabled="0" shadowOffsetX="0" shadowOffsetY="2" shadowBlur="4" shadowOpacity="160" blurEnabled="0" blurRadius="4" transform="matrix(5.04244,0,0,5.04243,304.305,331.303)" pers-center="0,0" pers-size="0,0" pers-start="0,0" pers-end="0,0" locked="0" mesh="" flag=""/>
            <path id="shapePath1" d="M597.73,513.281 C608.823,496.641 604.789,473.95 588.149,462.857 C571.509,451.763 548.818,455.797 537.725,472.437 C537.725,472.437 537.725,472.437 537.725,472.942 C460.071,587.909 302.747,618.668 187.78,540.51 C72.3081,462.857 42.0535,305.533 119.707,190.061 C197.361,75.0935 354.18,44.3346 469.652,121.484 C469.652,121.484 469.652,121.484 470.156,121.484 C486.796,132.577 509.487,128.543 520.581,111.903 C531.674,95.2632 527.64,73.0765 511,61.4789 C362.752,-38.3613 160.551,0.969635 60.2063,149.217 C-40.1382,297.465 -0.807221,500.171 147.945,600.011 C295.184,701.364 497.386,662.033 597.73,513.281 M266.442,105.348 C141.39,139.637 67.77,268.723 102.058,393.775 C136.347,518.828 265.434,592.447 390.486,558.159 C404.605,554.125 412.673,540.006 409.143,525.887 C405.109,511.768 390.99,503.7 376.871,507.734 C280.057,533.955 179.712,476.976 152.987,379.656 C126.262,282.842 183.746,181.993 281.065,155.772 C377.88,129.552 478.224,186.531 504.949,283.346 C504.949,283.346 504.949,283.346 504.949,283.85 C508.983,297.969 523.102,306.037 536.716,302.003 C550.835,297.969 559.912,283.85 554.869,269.731 C519.068,144.679 390.99,71.0596 266.442,105.348 M446.457,382.178 C442.423,391.254 446.457,402.347 456.038,406.382 C465.114,410.415 475.703,406.382 479.737,396.801 C479.737,396.801 479.233,396.801 479.233,396.801 C479.233,396.801 479.737,396.801 479.737,396.801 C516.043,313.601 478.224,216.282 395.024,179.976 C311.824,143.671 214.505,181.993 178.199,265.193 C141.894,348.393 180.216,445.712 263.416,482.018 C272.493,486.052 283.586,482.018 287.62,472.437 C291.654,463.361 287.62,452.268 278.04,448.234 C213.496,419.996 183.746,344.359 211.984,279.816 C240.221,215.273 315.858,185.523 380.401,213.76 C444.944,241.998 474.695,317.13 446.457,382.178 Z" style="stroke:none;fill-rule:nonzero;fill:#ffffff;fill-opacity:1;"/>
        </g>
    </g>
</svg>
