<?xml version="1.0" encoding="UTF-8"?>
<svg width="572px" height="651px" viewBox="0 0 572 651" version="1.1" xmlns="http://www.w3.org/2000/svg" xmlns:xlink="http://www.w3.org/1999/xlink">
    <!-- Generator: Sketch 41.1 (35376) - http://www.bohemiancoding.com/sketch -->
    <title>shapePath1</title>
    <desc>Created with Sketch.</desc>
    <defs></defs>
    <g id="Page-1" stroke="none" stroke-width="1" fill="none" fill-rule="evenodd">
        <g id="costimize-logo" transform="translate(-47.000000, -47.000000)" fill="#FFFFFF">
            <g id="Layer1">
                <g id="Shape1">
                    <path d="M640.73,550.281 C651.823,533.641 647.789,510.95 631.149,499.857 C614.509,488.763 591.818,492.797 580.725,509.437 C580.725,509.437 580.725,509.437 580.725,509.942 C503.071,624.909 345.747,655.668 230.78,577.51 C115.3081,499.857 85.0535,342.533 162.707,227.061 C240.361,112.0935 397.18,81.3346 512.652,158.484 L513.156,158.484 C529.796,169.577 552.487,165.543 563.581,148.903 C574.674,132.2632 570.64,110.0765 554,98.4789 C405.752,-1.3613 203.551,37.969635 103.2063,186.217 C2.8618,334.465 42.192779,537.171 190.945,637.011 C338.184,738.364 540.386,699.033 640.73,550.281 L640.73,550.281 Z M309.442,142.348 C184.39,176.637 110.77,305.723 145.058,430.775 C179.347,555.828 308.434,629.447 433.486,595.159 C447.605,591.125 455.673,577.006 452.143,562.887 C448.109,548.768 433.99,540.7 419.871,544.734 C323.057,570.955 222.712,513.976 195.987,416.656 C169.262,319.842 226.746,218.993 324.065,192.772 C420.88,166.552 521.224,223.531 547.949,320.346 C547.949,320.346 547.949,320.346 547.949,320.85 C551.983,334.969 566.102,343.037 579.716,339.003 C593.835,334.969 602.912,320.85 597.869,306.731 C562.068,181.679 433.99,108.0596 309.442,142.348 L309.442,142.348 Z M489.457,419.178 C485.423,428.254 489.457,439.347 499.038,443.382 C508.114,447.415 518.703,443.382 522.737,433.801 L522.233,433.801 L522.737,433.801 C559.043,350.601 521.224,253.282 438.024,216.976 C354.824,180.671 257.505,218.993 221.199,302.193 C184.894,385.393 223.216,482.712 306.416,519.018 C315.493,523.052 326.586,519.018 330.62,509.437 C334.654,500.361 330.62,489.268 321.04,485.234 C256.496,456.996 226.746,381.359 254.984,316.816 C283.221,252.273 358.858,222.523 423.401,250.76 C487.944,278.998 517.695,354.13 489.457,419.178 Z" id="shapePath1" transform="translate(347.305083, 368.303292) rotate(9.000000) translate(-347.305083, -368.303292) "></path>
                </g>
            </g>
        </g>
    </g>
</svg>