<?xml version="1.0" encoding="UTF-8"?>
<svg width="83px" height="95px" viewBox="0 0 83 95" version="1.1" xmlns="http://www.w3.org/2000/svg" xmlns:xlink="http://www.w3.org/1999/xlink">
    <!-- Generator: Sketch 41.1 (35376) - http://www.bohemiancoding.com/sketch -->
    <title>costimize-logo</title>
    <desc>Created with Sketch.</desc>
    <defs></defs>
    <g id="Page-1" stroke="none" stroke-width="1" fill="none" fill-rule="evenodd">
        <g id="costimize-logo" transform="translate(-6.000000, -6.000000)" fill="#FFFFFF">
            <g id="Page-1">
                <g id="costimize-logo">
                    <g id="Layer1">
                        <g id="Shape1">
                            <path d="M92.1913669,79.1771223 C93.787482,76.7828777 93.2070503,73.5179856 90.8128057,71.9218705 C88.4185611,70.3256115 85.1536691,70.9060432 83.5575539,73.3002878 C83.5575539,73.3002878 83.5575539,73.3002878 83.5575539,73.3729496 C72.3843165,89.914964 49.7477698,94.3407194 33.2057554,83.094964 C16.5910935,71.9218705 12.2379137,49.2853237 23.4110791,32.6706475 C34.5843165,16.1285611 57.1482014,11.7028201 73.7628777,22.8034532 L73.8353957,22.8034532 C76.2296403,24.3995683 79.4945324,23.8191367 81.0907914,21.4248921 C82.6869065,19.0306762 82.1064748,15.8383453 79.7122302,14.1696259 C58.3815827,-0.195870513 29.2879137,5.46325682 14.8498273,26.7938129 C0.411769774,48.1244604 6.07090344,77.2907914 27.4741007,91.656259 C48.6595683,106.239424 77.7533813,100.580288 92.1913669,79.1771223 L92.1913669,79.1771223 Z M44.5240288,20.4817266 C26.5309352,25.4153957 15.9381295,43.9889209 20.8716547,61.9820144 C25.8053237,79.9752518 44.3789928,90.5679137 62.3720863,85.6343885 C64.4035971,85.0539568 65.5644604,83.022446 65.0565468,80.9909352 C64.4761151,78.9594245 62.4446043,77.7985611 60.4130935,78.3789928 C46.4830216,82.1517986 32.0448921,73.9533813 28.1995683,59.9505036 C24.3542446,46.0204316 32.6253237,31.5097842 46.6280575,27.7369784 C60.5582734,23.9643165 74.996259,32.1627338 78.8415827,46.0929496 C78.8415827,46.0929496 78.8415827,46.0929496 78.8415827,46.1654676 C79.4220144,48.1969784 81.4535252,49.3578417 83.4123741,48.7774101 C85.4438849,48.1969784 86.749928,46.1654676 86.0243165,44.1339568 C80.8730935,26.1408633 62.4446043,15.5481439 44.5240288,20.4817266 L44.5240288,20.4817266 Z M70.4254676,60.3133813 C69.845036,61.6192806 70.4254676,63.2153957 71.8040288,63.7959712 C73.109928,64.376259 74.6335252,63.7959712 75.2139568,62.4174101 L75.1414388,62.4174101 L75.2139568,62.4174101 C80.4378417,50.446187 74.996259,36.4434532 63.025036,31.2195683 C51.0538129,25.9958273 37.0510791,31.5097842 31.8271942,43.4810072 C26.6034532,55.4522302 32.1174101,69.454964 44.0886331,74.6788489 C45.3946762,75.2592806 46.9907914,74.6788489 47.571223,73.3002878 C48.1516547,71.9943885 47.571223,70.3982734 46.1928057,69.8178417 C36.9058993,65.7548201 32.6253237,54.8717986 36.6883453,45.585036 C40.751223,36.2982734 51.6342446,32.0176978 60.9210072,36.0805755 C70.2077698,40.1435971 74.4884892,50.9539568 70.4254676,60.3133813 Z" id="shapePath1" transform="translate(49.971954, 52.993279) rotate(9.000000) translate(-49.971954, -52.993279) "></path>
                        </g>
                    </g>
                </g>
            </g>
        </g>
    </g>
</svg>