<svg version="1.1"
     xmlns="http://www.w3.org/2000/svg" xmlns:xlink="http://www.w3.org/1999/xlink" xmlns:a="http://ns.adobe.com/AdobeSVGViewerExtensions/3.0/"
     x="0px" y="0px" viewBox="-4.9 -4.1 139 125"
     overflow="visible" enable-background="new -4.9 -4.1 139 125" xml:space="preserve">
<path fill="#ffffff" d="M64.9,7.1c38.4,0,57.2,6.6,57.2,49.4c0,42.8-18.8,49.4-57.2,49.4c0,0,0,0-0.1,0c0,0,0,0,0,0
    c-0.1,0-0.1,0-0.2,0c-0.1,0-0.1,0-0.2,0c0,0,0,0,0,0c0,0,0,0-0.1,0c-38.4,0-57.2-6.6-57.2-49.4c0-42.8,18.8-49.4,57.2-49.4
    c0,0,0,0,0.1,0c0,0,0,0,0,0c0.1,0,0.1,0,0.2,0C64.7,7.1,64.7,7.1,64.9,7.1C64.8,7.1,64.8,7.1,64.9,7.1C64.9,7.1,64.9,7.1,64.9,7.1
     M64.9,0L64.9,0h-0.3h-0.2C22.6,0,0,9,0,56.6c0,47.5,22.6,56.6,64.3,56.6h0.3h0.2c41.8,0,64.4-9,64.4-56.6C129.2,9,106.6,0,64.9,0
    L64.9,0z"/>
<path fill="#ffffff" d="M43.8,34.6c-7.6,3.2-0.7,36.7,12.7,42.8c13.4,6.1,34.2-15.3,35.8-24.7C93.8,43.3,51.4,31.4,43.8,34.6z"/>
</svg>